<?xml version="1.0" encoding="UTF-8"?>
<svg enable-background="new 0 0 1667.45 1667.45" version="1.1" viewBox="0 0 1667.45 1667.45" xmlns="http://www.w3.org/2000/svg">
 <path d="m1128.3 847.91c-78.622 73.23-186.82 122.32-294.83 121.8-105.42-6.098-207.74-59.93-280.24-135.98 71.069 65.638 172.69 116.62 270.91 116.05 102.75-0.596 206.29-56.533 275.96-130.24 9.398 9.459 18.795 18.918 28.192 28.377z"/>
 <path d="m539.14 819.54c78.616-73.234 186.82-122.32 294.83-121.8 105.42 6.097 207.74 59.931 280.24 135.98-71.07-65.637-172.68-116.62-270.92-116.05-102.75 0.596-206.29 56.534-275.96 130.24-9.396-9.458-18.793-18.917-28.19-28.377z"/>
 <path d="m833.72 743.74c-28.23 0-53.519 12.583-70.573 32.443 6.243-3.466 13.425-5.447 21.073-5.447 24.017 0 43.486 19.469 43.486 43.486s-19.469 43.486-43.486 43.486c-20.89 0-38.333-14.733-42.522-34.374-0.631 4.374-0.964 8.844-0.964 13.392 0 51.355 41.631 92.986 92.986 92.986s92.986-41.631 92.986-92.986-41.631-92.986-92.986-92.986z"/>
 <path d="m743.6 677.63l-309.88-536.73-10.714 39.126 313.65 499.2c2.316-0.554 4.632-1.084 6.948-1.599z"/>
 <path d="m751.81 675.89l-273.72-527.38-39.163-10.578 306.06 539.4c2.273-0.498 4.548-0.98 6.822-1.439z"/>
 <path d="m719.02 683.86l-354.51-463.18-40.404-3.616 387.55 468.96c2.454-0.742 4.909-1.459 7.365-2.156z"/>
 <path d="m804.63 668.71l-109.82-622.84-23.45 33.102 126.98 590.22c2.1-0.18 4.199-0.346 6.297-0.492z"/>
 <path d="m710.16 686.46l-390.66-465.57-3.757 40.392 386.89 427.56c2.508-0.816 5.018-1.615 7.529-2.384z"/>
 <path d="m812.15 668.26l-78.253-600.06-33.183-23.335 105.18 623.76c2.087-0.139 4.174-0.257 6.261-0.363z"/>
 <path d="m782.59 670.86l-180.12-573.7-36.731-17.218 210.38 591.78c2.154-0.304 4.308-0.591 6.462-0.86z"/>
 <path d="m774.83 671.91l-214.72-589.94-17.345 36.671 225.52 554.26c2.18-0.351 4.361-0.682 6.541-0.996z"/>
 <path d="m576.98 751c3.441-2.354 6.91-4.667 10.407-6.936l-505.42-183.96 16.942 36.859 478.07 154.04z"/>
 <path d="m832.25 667.74l1.478 4e-3v-634.02l-28.841 28.527 22.637 605.52c1.575-0.019 3.15-0.032 4.726-0.032z"/>
 <path d="m550.34 770.54l-470.12-104.83-33.277 23.201 492.28 90.609c3.66-3.044 7.37-6.037 11.123-8.982z"/>
 <path d="m599.58 736.4l-478.74-198.99-36.8 17.07 505.41 188.26c3.352-2.152 6.727-4.266 10.127-6.337z"/>
 <path d="m525.68 791.2c3.708-3.32 7.475-6.588 11.295-9.805l-491.1-86.593 23.085 33.357 456.72 63.041z"/>
 <path d="m665.25 702.77c2.773-1.166 5.549-2.311 8.327-3.419l-452.69-379.85 3.314 40.431 441.05 342.84z"/>
 <path d="m683.34 695.58l-418.16-384.12-40.418 3.455 450.47 383.78c2.7-1.065 5.401-2.107 8.104-3.118z"/>
 <path d="m623.59 722.66c3.092-1.659 6.199-3.283 9.319-4.873l-492-284.06 10.284 39.241 472.4 249.69z"/>
 <path d="m643.8 712.4l-460.67-294.28-39.205 10.421 490.83 288.3c3.003-1.515 6.019-3.001 9.047-4.45z"/>
 <path d="m921.14 682.32l312.59-541.42-39.241 10.284-279.81 529.38c2.155 0.569 4.309 1.15 6.46 1.754z"/>
 <path d="m1022.5 724.73l504.03-291-39.125-10.714-473.06 297.22c2.728 1.472 5.447 2.969 8.153 4.496z"/>
 <path d="m1063 750.28l522.5-190.18-36.67-17.345-494.84 201.34c3.02 2.022 6.022 4.082 9.004 6.176z"/>
 <path d="m1032.5 730.54l486.42-252.46 10.578-39.163-505.36 286.74c2.799 1.596 5.587 3.221 8.362 4.876z"/>
 <path d="m994.95 710.32l451.83-345.82 3.617-40.405-463.04 382.66c2.537 1.166 5.068 2.353 7.59 3.567z"/>
 <path d="m985.86 706.07l460.7-386.57-40.392-3.757-427.72 387.04c2.479 1.077 4.952 2.173 7.417 3.295z"/>
 <path d="m1119.3 796.48l479.91-62.584 23.334-33.183-513.21 86.534c3.36 3.026 6.679 6.107 9.962 9.233z"/>
 <path d="m835.71 667.8c1.816 0.105 3.632 0.227 5.45 0.358l27.187-605.66-28.627-28.742-4.749 634 0.739 0.043z"/>
 <path d="m1107.4 785.47l514.18-90.664-33.102-23.45-490.88 105.6c3.302 2.788 6.568 5.628 9.803 8.51z"/>
 <path d="m1074 758.28l496.25-155.8 17.218-36.731-522.7 185.82c3.098 2.197 6.173 4.433 9.226 6.707z"/>
 <polygon points="1605.2 804.88 1144.9 822.09 1156.5 833.72 1633.7 833.72"/>
 <path d="m891.45 675.13l215.89-593.16-36.859 16.942-185.26 574.99c2.077 0.391 4.155 0.797 6.231 1.22z"/>
 <path d="m869.94 671.34l131.81-591.12-23.201-33.276-114.77 623.53c2.054 0.272 4.107 0.562 6.161 0.867z"/>
 <path d="m862.54 670.31l110.1-624.43-33.357 23.085-82.902 600.6c2.051 0.232 4.102 0.48 6.155 0.744z"/>
 <path d="m898.98 676.74l231.06-555.9-17.07-36.8-220.26 591.34c2.092 0.434 4.182 0.89 6.272 1.358z"/>
 <path d="m960.7 695.5l395.29-430.32-3.455-40.419-398.8 468.11c2.328 0.855 4.652 1.735 6.972 2.629z"/>
 <polygon points="496.02 818.7 496.16 818.57 62.49 799.11 33.748 827.73 508.53 831.29"/>
 <path d="m952.34 692.37l395.62-471.48-40.43 3.314-362.03 465.74c2.286 0.788 4.568 1.598 6.846 2.425z"/>
 <path d="m928.98 684.61l320.35-501.48-10.421-39.205-316.47 538.77c2.183 0.621 4.363 1.26 6.541 1.917z"/>
 <path d="m672.5 957.13l-451.82 345.82-3.616 40.405 463.03-382.66c-2.538-1.166-5.069-2.353-7.591-3.568z"/>
 <path d="m948.44 983.6l354.51 463.18 40.405 3.616-387.55-468.95c-2.454 0.742-4.909 1.46-7.365 2.157z"/>
 <path d="m923.85 989.82l309.88 536.72 10.714-39.126-313.64-499.2c-2.316 0.555-4.632 1.085-6.948 1.6z"/>
 <path d="m915.64 991.56l273.72 527.38 39.163 10.578-306.06-539.4c-2.274 0.498-4.547 0.98-6.822 1.439z"/>
 <path d="m984.12 971.87l418.16 384.11 40.419-3.455-450.47-383.78c-2.699 1.066-5.401 2.108-8.104 3.119z"/>
 <path d="m957.3 980.99l390.66 465.57 3.757-40.392-386.89-427.56c-2.509 0.816-5.018 1.614-7.53 2.383z"/>
 <path d="m862.82 998.74l109.82 622.83 23.45-33.102-126.97-590.22c-2.1 0.18-4.199 0.346-6.298 0.492z"/>
 <path d="m892.62 995.55l214.72 589.93 17.346-36.671-225.52-554.26c-2.18 0.351-4.361 0.681-6.54 0.996z"/>
 <path d="m855.3 999.19l78.252 600.06 33.183 23.334-105.17-623.76c-2.088 0.139-4.174 0.257-6.261 0.363z"/>
 <path d="m884.86 996.59l180.12 573.7 36.731 17.218-210.38-591.78c-2.154 0.304-4.308 0.591-6.462 0.86z"/>
 <path d="m1117.1 896.91l470.12 104.83 33.276-23.201-492.28-90.609c-3.659 3.043-7.369 6.036-11.122 8.981z"/>
 <path d="m1141.8 876.24c-3.708 3.321-7.475 6.589-11.294 9.805l491.1 86.594-23.085-33.357-456.72-63.042z"/>
 <path d="m1002.2 964.69c-2.774 1.166-5.549 2.311-8.328 3.419l452.69 379.85-3.313-40.431-441.05-342.84z"/>
 <path d="m1090.5 916.45c-3.44 2.354-6.909 4.667-10.406 6.937l505.42 183.96-16.942-36.859-478.07-154.04z"/>
 <polygon points="1171.4 848.75 1171.3 848.88 1605 868.34 1633.7 839.72 1158.9 836.16"/>
 <path d="m1023.7 955.05l460.67 294.27 39.205-10.421-490.83-288.3c-3.004 1.516-6.019 3.001-9.047 4.451z"/>
 <path d="m1043.9 944.79c-3.092 1.659-6.199 3.283-9.319 4.873l492 284.06-10.284-39.241-472.4-249.69z"/>
 <path d="m1067.9 931.05l478.74 198.99 36.8-17.07-505.41-188.26c-3.352 2.152-6.727 4.266-10.126 6.338z"/>
 <path d="m738.47 982.84l-320.34 501.48 10.421 39.205 316.46-538.77c-2.183-0.621-4.363-1.26-6.541-1.916z"/>
 <path d="m706.75 971.95l-395.29 430.32 3.455 40.419 398.8-468.11c-2.328-0.855-4.652-1.735-6.972-2.629z"/>
 <path d="m634.92 936.91l-486.41 252.45-10.578 39.163 505.35-286.74c-2.8-1.596-5.588-3.221-8.363-4.876z"/>
 <path d="m644.93 942.73l-504.02 291 39.126 10.714 473.05-297.22c-2.728-1.471-5.447-2.968-8.153-4.495z"/>
 <path d="m681.59 961.38l-460.7 386.57 40.392 3.757 427.72-387.03c-2.479-1.076-4.952-2.172-7.417-3.294z"/>
 <path d="m604.46 917.17l-522.49 190.17 36.671 17.345 494.83-201.34c-3.021-2.022-6.022-4.081-9.005-6.176z"/>
 <path d="m548.09 870.97l-479.9 62.582-23.335 33.184 513.2-86.532c-3.36-3.027-6.679-6.108-9.963-9.234z"/>
 <path d="m560.05 881.98l-514.17 90.662 33.102 23.45 490.87-105.6c-3.304-2.789-6.57-5.629-9.805-8.511z"/>
 <path d="m593.4 909.17l-496.24 155.8-17.217 36.731 522.69-185.82c-3.097-2.197-6.173-4.433-9.226-6.707z"/>
 <path d="m797.52 996.12l-131.81 591.12 23.201 33.276 114.77-623.53c-2.053-0.271-4.107-0.561-6.161-0.866z"/>
 <path d="m804.91 997.14l-110.1 624.43 33.357-23.085 82.902-600.6c-2.051-0.231-4.103-0.48-6.155-0.744z"/>
 <path d="m835.22 999.71c-4e-3 0-0.782-2e-3 -1.5-4e-3v634.02l28.842-28.527-22.638-605.52c-1.568 0.018-3.136 0.031-4.704 0.031z"/>
 <path d="m715.11 975.08l-395.62 471.48 40.431-3.314 362.03-465.74c-2.286-0.788-4.568-1.598-6.846-2.425z"/>
 <path d="m776 992.32l-215.89 593.16 36.859-16.942 185.26-574.99c-2.077-0.39-4.154-0.796-6.231-1.22z"/>
 <path d="m831.75 999.66c-1.818-0.105-3.637-0.227-5.457-0.359l-27.187 605.66 28.627 28.742 4.749-634-0.732-0.042z"/>
 <polygon points="522.51 845.36 510.95 833.72 33.725 833.72 62.252 862.57"/>
 <path d="m768.47 990.71l-231.06 555.9 17.07 36.8 220.26-591.34c-2.092-0.433-4.182-0.89-6.272-1.357z"/>
 <path d="m746.31 985.13l-312.59 541.42 39.241-10.284 279.81-529.38c-2.156-0.57-4.31-1.151-6.461-1.755z"/>
</svg>
